<svg xmlns="http://www.w3.org/2000/svg" width="240" height="80" viewBox="0 0 240 80" fill="none">
  <defs>
    <linearGradient id="orangeGrad" x1="0%" y1="0%" x2="100%" y2="0%">
      <stop offset="0%" stop-color="#FF5A1F"/>
      <stop offset="50%" stop-color="#FF7A00"/>
      <stop offset="100%" stop-color="#FFB000"/>
    </linearGradient>
    <linearGradient id="indigoGrad" x1="0%" y1="0%" x2="0%" y2="100%">
      <stop offset="0%" stop-color="#2A1480"/>
      <stop offset="100%" stop-color="#1E0E6B"/>
    </linearGradient>
  </defs>
  <!-- Icon mark -->
  <g transform="translate(0, 8)">
    <!-- Outer circle (indigo) -->
    <path d="M30 4C15.64 4 4 15.64 4 30C4 44.36 15.64 56 30 56C44.36 56 56 44.36 56 30" stroke="url(#indigoGrad)" stroke-width="5" fill="none"/>
    <!-- Inner 'i' shape -->
    <path d="M30 20V42" stroke="#1E0E6B" stroke-width="5" stroke-linecap="round"/>
    <circle cx="30" cy="14" r="3.5" fill="#EB9E5B"/>
    <!-- Orange swoosh/checkmark -->
    <path d="M22 34C22 34 26 40 34 40C42 40 48 32 48 32" stroke="url(#orangeGrad)" stroke-width="5" stroke-linecap="round" fill="none"/>
    <!-- Orange dot -->
    <circle cx="28" cy="18" r="4" fill="url(#orangeGrad)"/>
    <!-- Sparkle/star -->
    <path d="M46 10L48 6L50 10L54 12L50 14L48 18L46 14L42 12Z" fill="url(#orangeGrad)"/>
  </g>
  <!-- Wordmark -->
  <g transform="translate(68, 0)">
    <text x="0" y="48" font-family="system-ui, -apple-system, sans-serif" font-size="42" font-weight="300" letter-spacing="-1">
      <tspan fill="#1E0E6B">intent</tspan><tspan fill="url(#orangeGrad)">eo</tspan>
    </text>
    <!-- Tagline -->
    <line x1="0" y1="58" x2="2" y2="58" stroke="#1E0E6B" stroke-width="1.5"/>
    <text x="8" y="61" font-family="system-ui, -apple-system, sans-serif" font-size="11" fill="#1E0E6B" letter-spacing="1.5">Live with Intentionality</text>
    <line x1="148" y1="58" x2="150" y2="58" stroke="#EB9E5B" stroke-width="1.5"/>
  </g>
</svg>