<svg xmlns="http://www.w3.org/2000/svg" width="64" height="64" viewBox="0 0 64 64" fill="none">
  <defs>
    <linearGradient id="orangeGrad" x1="0%" y1="0%" x2="100%" y2="0%">
      <stop offset="0%" stop-color="#FF5A1F"/>
      <stop offset="50%" stop-color="#FF7A00"/>
      <stop offset="100%" stop-color="#FFB000"/>
    </linearGradient>
    <linearGradient id="indigoGrad" x1="0%" y1="0%" x2="0%" y2="100%">
      <stop offset="0%" stop-color="#2A1480"/>
      <stop offset="100%" stop-color="#1E0E6B"/>
    </linearGradient>
  </defs>
  <!-- Outer circle (indigo) -->
  <path d="M32 4C16.536 4 4 16.536 4 32C4 47.464 16.536 60 32 60C47.464 60 60 47.464 60 32" stroke="url(#indigoGrad)" stroke-width="5.5" fill="none"/>
  <!-- Inner 'i' shape -->
  <path d="M32 22V46" stroke="#1E0E6B" stroke-width="5.5" stroke-linecap="round"/>
  <circle cx="32" cy="15" r="4" fill="#EB9E5B"/>
  <!-- Orange swoosh/checkmark -->
  <path d="M23 36C23 36 28 44 36 44C44 44 52 34 52 34" stroke="url(#orangeGrad)" stroke-width="5.5" stroke-linecap="round" fill="none"/>
  <!-- Orange dot -->
  <circle cx="30" cy="20" r="4.5" fill="url(#orangeGrad)"/>
  <!-- Sparkle/star -->
  <path d="M48 10L50 5L52 10L57 12L52 14L50 19L48 14L43 12Z" fill="url(#orangeGrad)"/>
</svg>