<svg xmlns="http://www.w3.org/2000/svg" width="223" height="51" viewBox="0 0 223 51" fill="none">
  <defs>
    <linearGradient id="orangeGrad" x1="0%" y1="0%" x2="100%" y2="0%">
      <stop offset="0%" stop-color="#FF5A1F"/>
      <stop offset="50%" stop-color="#FF7A00"/>
      <stop offset="100%" stop-color="#FFB000"/>
    </linearGradient>
    <linearGradient id="indigoGrad" x1="0%" y1="0%" x2="0%" y2="100%">
      <stop offset="0%" stop-color="#2A1480"/>
      <stop offset="100%" stop-color="#1E0E6B"/>
    </linearGradient>
  </defs>
  <!-- Circular icon mark (56x51) -->
  <g transform="translate(0, 0)">
    <path d="M28 2C14.745 2 4 12.745 4 26C4 39.255 14.745 50 28 50C41.255 50 52 39.255 52 26" stroke="url(#indigoGrad)" stroke-width="4.5" fill="none"/>
    <path d="M28 16V40" stroke="#1E0E6B" stroke-width="4.5" stroke-linecap="round"/>
    <circle cx="28" cy="11" r="3" fill="#EB9E5B"/>
    <path d="M20 30C20 30 24 36 30 36C36 36 42 28 42 28" stroke="url(#orangeGrad)" stroke-width="4.5" stroke-linecap="round" fill="none"/>
    <circle cx="26" cy="15" r="3.5" fill="url(#orangeGrad)"/>
    <path d="M42 8L44 4L46 8L50 10L46 12L44 16L42 12L38 10Z" fill="url(#orangeGrad)"/>
  </g>
  <!-- Spacing (9px) + Text and tagline (159x47) -->
  <g transform="translate(65, 2)">
    <text x="0" y="30" font-family="system-ui, -apple-system, sans-serif" font-size="28" font-weight="300" letter-spacing="-0.5">
      <tspan fill="#1E0E6B">intent</tspan><tspan fill="url(#orangeGrad)">eo</tspan>
    </text>
    <line x1="0" y1="37" x2="2" y2="37" stroke="#1E0E6B" stroke-width="1"/>
    <text x="6" y="40" font-family="system-ui, -apple-system, sans-serif" font-size="8" fill="#1E0E6B" letter-spacing="1.2">Live with Intentionality</text>
    <line x1="108" y1="37" x2="110" y2="37" stroke="#EB9E5B" stroke-width="1"/>
  </g>
</svg>